<svg width="172" height="40" viewBox="0 0 172 40" xmlns="http://www.w3.org/2000/svg">
    <defs>
        <linearGradient x1="100%" y1="50%" x2="0%" y2="50%" id="tmeug7wn1a">
            <stop stop-color="#3F3BFF" offset="0%"/>
            <stop stop-color="#09BE8B" offset="100%"/>
        </linearGradient>
    </defs>
    <path d="M0 6.689a3.08 3.08 0 0 1 3.08-3.08h1.49c1.004 0 1.953.458 2.578 1.244l9.146 11.514a1.097 1.097 0 0 0 1.956-.682V2.904a.576.576 0 0 1 1-.389 1.01 1.01 0 0 0 1.654-.237L21.742.57a1.017 1.017 0 0 1 1.661-.24 3.809 3.809 0 0 1 1.007 2.58v23.275a3.08 3.08 0 0 1-3.08 3.08 6.377 6.377 0 0 1-4.994-2.413l-8.22-10.355a1.097 1.097 0 0 0-1.957.682v19.899a3.76 3.76 0 0 1-1.06 2.616 1.011 1.011 0 0 1-1.655-.307l-.754-1.77a.984.984 0 0 0-1.66-.247.583.583 0 0 1-1.03-.374V6.689zm32.259-3.135H48.66a2.126 2.126 0 0 1 2.08 2.57l-.456 2.135a.549.549 0 0 1-.537.434H33.345a2.126 2.126 0 0 1-2.079-2.57l.456-2.135a.549.549 0 0 1 .537-.434zM31.13 13.833h11.804a2.126 2.126 0 0 1 2.08 2.57l-.457 2.135a.549.549 0 0 1-.536.434H32.218a2.126 2.126 0 0 1-2.08-2.57l.457-2.135a.549.549 0 0 1 .536-.434zM30.065 24.11h16.401a2.126 2.126 0 0 1 2.08 2.57l-.457 2.135a.549.549 0 0 1-.536.434H31.151a2.126 2.126 0 0 1-2.079-2.57l.456-2.135a.549.549 0 0 1 .537-.434zM66.569 3.554c1.882 0 3.633.326 5.252.979a13.081 13.081 0 0 1 4.252 2.74 12.72 12.72 0 0 1 2.84 4.093c.679 1.554 1.018 3.233 1.018 5.036 0 1.804-.34 3.482-1.018 5.036a12.72 12.72 0 0 1-2.84 4.093 13.081 13.081 0 0 1-4.252 2.74c-1.62.653-3.37.98-5.252.98-1.881 0-3.632-.327-5.251-.98a13.081 13.081 0 0 1-4.252-2.74 12.72 12.72 0 0 1-2.84-4.093c-.679-1.554-1.018-3.232-1.018-5.036 0-1.803.34-3.482 1.018-5.036a12.72 12.72 0 0 1 2.84-4.093 13.081 13.081 0 0 1 4.252-2.74c1.62-.653 3.37-.979 5.251-.979zm0 5.623c-1 0-1.929.184-2.786.552a6.938 6.938 0 0 0-2.233 1.513 6.925 6.925 0 0 0-1.483 2.277 7.481 7.481 0 0 0-.536 2.848c0 1.044.18 2.01.536 2.9.358.89.852 1.655 1.483 2.296a6.938 6.938 0 0 0 2.233 1.512 6.994 6.994 0 0 0 2.786.552c1 0 1.93-.184 2.787-.552a6.938 6.938 0 0 0 2.233-1.512 6.882 6.882 0 0 0 1.483-2.296c.357-.89.536-1.844.536-2.865 0-1.044-.18-2.005-.536-2.883a6.925 6.925 0 0 0-1.483-2.277 6.938 6.938 0 0 0-2.233-1.513 6.994 6.994 0 0 0-2.787-.552zm.006 3.7a3.562 3.562 0 1 1 0 7.123 3.562 3.562 0 0 1 0-7.123zm27.663 16.338c-2.025 0-4.026-.368-6.002-1.103-1.129-.42-2.584-1.229-4.364-2.426a.774.774 0 0 1-.014-1.276l.027-.02a1.753 1.753 0 0 0 .725-1.688 1.536 1.536 0 0 1 .794-1.578l.011-.006a1.76 1.76 0 0 1 1.84.109c1.503 1.05 2.615 1.726 3.338 2.026 1.287.534 2.656.801 4.109.801.953 0 1.762-.095 2.43-.284.666-.19 1.178-.47 1.536-.837.357-.368.535-.8.535-1.299 0-.688-.262-1.222-.786-1.602-.523-.38-1.417-.676-2.679-.89l-5.502-.96c-2.024-.356-3.584-1.127-4.68-2.314-1.096-1.186-1.643-2.693-1.643-4.52 0-1.613.41-3.001 1.232-4.164.822-1.162 2-2.052 3.537-2.669 1.536-.617 3.364-.925 5.484-.925 1.858 0 3.728.314 5.61.943 1.029.344 2.313.993 3.851 1.948a.583.583 0 0 1-.126 1.05 1.22 1.22 0 0 0-.778 1.547l.426 1.268a1.15 1.15 0 0 1-1.73 1.323c-1.306-.872-5.133-2.954-7.682-2.954-.833 0-1.554.089-2.161.267-.607.178-1.072.427-1.393.747-.322.32-.483.706-.483 1.157 0 .617.233 1.091.697 1.423.464.333 1.22.594 2.269.783l5.18.855c2.405.38 4.233 1.174 5.484 2.384 1.25 1.21 1.875 2.776 1.875 4.698 0 1.685-.44 3.138-1.321 4.36-.882 1.222-2.144 2.165-3.787 2.83-1.644.664-3.597.996-5.86.996zm16.173-3.068V4.11c0-.303.245-.548.548-.548h2.62a3.168 3.168 0 0 1 3.168 3.168v22.037a.548.548 0 0 1-.548.548h-2.62a3.168 3.168 0 0 1-3.168-3.168zm11.823.07.657-9.19a3.288 3.288 0 0 1 3.279-3.054h9.952a2.603 2.603 0 0 1 2.603 2.603v2.053a.548.548 0 0 1-.549.548l-6.885-.012a2.192 2.192 0 0 0-2.183 1.956l-.832 7.705a.548.548 0 0 1-.544.49h-2.614a2.892 2.892 0 0 1-2.884-3.098zm1.051-22.655h16.23a2.29 2.29 0 0 1 2.245 2.74L141.3 8.6a.549.549 0 0 1-.538.44h-16.23a2.29 2.29 0 0 1-2.245-2.74l.46-2.298a.549.549 0 0 1 .538-.441zm31.395 22.585v-1.633c0-3.131-.921-6.194-2.649-8.805L144.56 4.412a.548.548 0 0 1 .457-.85h4.473c1.122 0 2.167.572 2.771 1.518l5.312 8.32a.548.548 0 0 0 .923 0l5.345-8.326a3.288 3.288 0 0 1 2.767-1.512h4.073a.548.548 0 0 1 .457.85l-7.472 11.297a15.961 15.961 0 0 0-2.649 8.805v4.253a.548.548 0 0 1-.548.548h-2.62a3.168 3.168 0 0 1-3.168-3.168z" fill="url(#tmeug7wn1a)" fill-rule="nonzero"/>
</svg>
